<?xml version="1.0" encoding="utf-8"?>
<!-- Generator: Adobe Illustrator 22.0.0, SVG Export Plug-In . SVG Version: 6.00 Build 0)  -->
<svg version="1.1" id="Layer_1" xmlns="http://www.w3.org/2000/svg" xmlns:xlink="http://www.w3.org/1999/xlink" x="0px" y="0px"
	 viewBox="0 0 150 150" style="enable-background:new 0 0 150 150;" xml:space="preserve">
<style type="text/css">
	.st0{fill:#D8BAAA;}
	.st1{fill:#838DB5;}
</style>
<g>
	<path class="st0" d="M149.9,16.9c-0.2-2.3-0.4-4.5-1.7-6.6c-3.6-6-8.3-10.1-15.7-10.1c0,0,0,0.1,0,0.1c-0.6,0.1-1.2,0.1-1.8-0.2
		C93.6,0,56.6,0,19.5,0c-0.6,0.3-1.2,0.3-1.8,0.2c0,0,0-0.1,0-0.1c-0.1,0-0.2,0-0.2,0c-1.8,0.1-3.7,0.1-5.4,0.9C6,3.6,0,9.8,0,19
		c0.1,37.3,0,74.6,0,111.9c0,4.1,1,7.9,3.5,11.2c4,5.2,9.1,8,15.8,7.9c10.1-0.1,20.3,0,30.4,0c7.8,0,15.5,0,23.3,0
		c0.9,0,1.4-0.1,1.6-0.5c0.1-0.3,0.2-0.7,0.2-1.3c0-1.7,0.3-3.4,0.3-5.1c0.1-15,0.1-30,0-45.1c0-2.1-0.3-2.4-2.5-2.5
		c-3.6-0.1-7.1,0-10.7,0c-3,0-4-1-4-4.1c0-4.8,0-9.7,0-14.5c0-2.8,0.9-3.7,3.7-3.7c3.4,0,6.7,0,10.1,0c2.9,0,3.1-0.2,3.1-3.2
		c0-3.9-0.1-7.9,0-11.8c0.1-3.7,0.3-7.5,1.1-11.2C78.6,36,86.7,28.5,98,27.1c6.1-0.8,12.2-0.6,18.2-0.6c0.5,0,1.1,0.1,1.6,0.3
		c1.3,0.4,2.1,1.2,2.2,2.6c0.1,4.7,0.1,9.5,0,14.2c0,1.4-0.9,2.2-2.2,2.6c-0.8,0.2-1.5,0.2-2.3,0.2c-2.9,0-5.8-0.1-8.6,0
		c-3.9,0.3-7.3,1.5-8.9,5.5c-0.8,2-1,4.2-1,6.3c-0.1,3.7,0,7.3,0,11c0,4,0,4,4.1,4c5.5,0,11,0,16.5,0c2.3,0,3.4,1.2,3.2,3.4
		c-0.5,5.1-1.1,10.2-1.8,15.2c-0.4,3-1.3,3.6-4.3,3.6c-5,0-9.9,0-14.9,0c-2.2,0-2.5,0.3-2.5,2.5c0.1,5.9-0.5,11.8-0.3,17.7
		c0.1,3.7,0,7.4,0,11.1c0,7,0,14,0,21.1c0,0.8,0,1.3,0.2,1.6c0.3,0.4,0.8,0.5,1.9,0.5c10.6,0,21.2,0,31.7,0c2.4,0,4.8-0.1,7-1
		c4.6-2,8.1-5.2,10.5-9.6c1.2-2.3,1.3-4.7,1.7-7.1c0-38.1,0-76.3,0-114.4C149.7,17.6,149.9,17.2,149.9,16.9z"/>
	<path class="st1" d="M19.5,0c-0.6,0-1.2,0-1.8,0c0,0,0,0.1,0,0.1c0,0,0,0.1,0,0.1C18.3,0.3,18.9,0.3,19.5,0z"/>
	<path class="st1" d="M132.5,0.2c0,0,0-0.1,0-0.1c0,0,0-0.1,0-0.1c-0.6,0-1.2,0-1.8,0C131.3,0.3,131.9,0.3,132.5,0.2z"/>
</g>
</svg>
