<?xml version="1.0" encoding="utf-8"?>
<!-- Generator: Adobe Illustrator 22.0.0, SVG Export Plug-In . SVG Version: 6.00 Build 0)  -->
<svg version="1.1" id="Layer_1" xmlns="http://www.w3.org/2000/svg" xmlns:xlink="http://www.w3.org/1999/xlink" x="0px" y="0px"
	 viewBox="0 0 150 150" style="enable-background:new 0 0 150 150;" xml:space="preserve">
<style type="text/css">
	.st0{fill:#D8BAAA;}
</style>
<g>
	<path class="st0" d="M0,122.6c0-0.6,0-1.1,0-1.7c0.4-1.6,1.5-2.1,3.1-2.1c6.2,0.1,12.3-0.4,18.2-2c5.7-1.5,11-3.8,16.2-6.9
		c-1.8-0.7-3.6-1.1-5.2-1.7c-8.6-3.6-14.8-9.6-18.3-18.1c-0.5-1.3-1.2-2.6-0.2-3.9c1.1-1.3,2.7-0.8,4.1-0.7c0.5,0,1,0.1,1.3,0.2
		c-4-2.1-7.4-5.1-10.2-8.8C5.2,71.8,3.2,66,2.6,59.8c-0.1-0.8-0.1-1.5,0-2.3c0.2-2,1.8-3,3.7-2.2c1.5,0.6,2.9,1.5,4.5,1.8
		c-5.7-6.5-8.4-14.1-8-22.7c0.2-5,1.6-9.8,4.2-14.2c1-1.8,2.5-2,4.1-0.6c1.5,1.3,2.7,2.9,4.1,4.3c4.1,4.5,8.9,8.3,13.9,11.7
		c7.3,4.9,15.2,8.5,23.7,11c4.5,1.3,9.2,2.2,13.9,2.8c0.4,0,0.8,0.1,1.2,0.1c1.3,0,1.6-0.2,1.5-1.5c-0.3-4.2,0.2-8.4,1.4-12.4
		c1.8-5.6,4.9-10.4,9.4-14.4c4.7-4.1,10.1-6.6,16.3-7.6c9.6-1.6,18.3,0.5,26,6.4c2.2,1.7,4.2,2.3,7,1.4c4.3-1.4,8.4-3,12.3-5.2
		c0.4-0.2,0.8-0.4,1.2-0.5c0.9-0.3,1.9-0.2,2.6,0.5c0.8,0.7,1,1.6,0.6,2.6c-1,2.9-2.4,5.6-4.2,8.1c-0.8,1.1-1.5,2.2-2.6,3.2
		c2.7-0.5,5-1.7,7.4-2.5c0.9-0.3,1.9-0.5,2.6,0.2c0.8,0.7,0.8,1.7,0.5,2.7c-0.6,2.2-2.2,3.7-3.6,5.3c-2.5,3-5.4,5.8-8.4,8.3
		c-1.8,1.5-2.6,3.3-2.6,5.6c-0.1,12.4-2.9,24.2-8.1,35.5c-3.1,6.9-7.1,13.4-12,19.3c-5.2,6.4-11.2,12-18.1,16.7
		c-6.8,4.7-14.1,8.3-22,10.8c-6.3,2.1-12.8,3.3-19.4,3.9c-3.7,0.3-7.5,0.6-11.2,0.5c-8.4-0.2-16.7-1.4-24.7-3.8
		c-6-1.8-11.8-4.3-17.3-7.2C1.2,124.8,0.3,124,0,122.6z"/>
</g>
</svg>
