<?xml version="1.0" encoding="utf-8"?>
<!-- Generator: Adobe Illustrator 22.0.0, SVG Export Plug-In . SVG Version: 6.00 Build 0)  -->
<svg version="1.1" id="Layer_1" xmlns="http://www.w3.org/2000/svg" xmlns:xlink="http://www.w3.org/1999/xlink" x="0px" y="0px"
	 viewBox="0 0 150 150" style="enable-background:new 0 0 150 150;" xml:space="preserve">
<style type="text/css">
	.st0{fill:#D8BAAA;}
</style>
<g>
	<path class="st0" d="M106.3,0H43.8C19.7,0,0,19.7,0,43.8v62.5C0,130.3,19.7,150,43.8,150h62.5c24.1,0,43.8-19.7,43.8-43.8V43.8
		C150,19.7,130.3,0,106.3,0z M134.7,106.9c0,15.1-12.3,27.4-27.4,27.4H43.4C28.3,134.3,16,122,16,106.9V43
		c0-15.1,12.3-27.4,27.4-27.4h63.9c15.1,0,27.4,12.3,27.4,27.4V106.9z"/>
	<path class="st0" d="M75.4,36.6C54.2,36.6,37,53.8,37,74.9c0,21.2,17.2,38.4,38.4,38.4c21.2,0,38.4-17.2,38.4-38.4
		C113.7,53.8,96.5,36.6,75.4,36.6z M75,99.4c-13.5,0-24.4-10.9-24.4-24.4S61.6,50.5,75,50.5c13.5,0,24.4,10.9,24.4,24.4
		S88.5,99.4,75,99.4z"/>
	<circle class="st0" cx="113.9" cy="36.5" r="9.3"/>
</g>
</svg>
